<?xml version="1.0" encoding="UTF-8"?>
<svg width="206px" height="196px" viewBox="0 0 206 196" version="1.1" xmlns="http://www.w3.org/2000/svg" xmlns:xlink="http://www.w3.org/1999/xlink">
    <!-- Generator: Sketch 49 (51002) - http://www.bohemiancoding.com/sketch -->
    <title>Logo in blue</title>
    <desc>Created with Sketch.</desc>
    <defs></defs>
    <g id="Page-1" stroke="none" stroke-width="1" fill="none" fill-rule="evenodd">
        <g id="Logo-in-blue" fill="#06629C" fill-rule="nonzero">
            <path d="M73.76,155.24 C73.0933333,151.626667 72.4066667,148.02 71.7,144.42 L60.89,146.48 L50.07,148.53 L39.25,150.59 L28.44,152.65 C29.1066667,156.25 29.7933333,159.853333 30.5,163.46 C32.21,172.46 35.23,179.46 38.91,184.46 C48.4282702,183.4492 57.860019,181.744667 67.13,179.36 C69.28,172.63 68.39,165.24 65.51,157.81 C64.22,154.48 60.86,151.49 47.74,153.95 L47.69,153.95 L50.99,153.32 L61.81,151.27 L67.81,150.13 L68.95,156.13 C70.33,163.38 70.76,172.01 68.12,179.13 L73.71,177.72 C75.26,171.72 75.5,164.17 73.79,155.2 L73.76,155.24 Z M54.82,99.32 C56.65,108.93 47.01,105.32 47.75,109.23 L54.68,145.67 L49.68,146.62 L44.68,147.57 L37.75,111.13 C36.94,106.87 29.47,114.7 27.53,104.5 C25.81,95.44 25.12,93.02 34.89,91.16 L43.04,89.61 C52.8,87.75 53.04,90.26 54.77,99.32 L54.82,99.32 Z M48.5,103.03 C49.76,102.79 49.3,100.26 49.06,99.03 C48.06,93.84 48.79,93.2 43.59,94.19 L39.89,94.89 L36.2,95.59 C30.99,96.59 31.89,96.91 32.88,102.11 C33.12,103.38 33.63,105.9 34.88,105.66 L41.69,104.37 L48.5,103.07 L48.5,103.03 Z M150.92,106.85 C158.19,108.49 162.59,110.64 162.59,112.98 C162.595313,113.076594 162.595313,113.173406 162.59,113.27 C163.5,113.8 165.01,104.44 165.01,99.79 C165.01,94.17 142.4,89.61 114.52,89.61 C86.64,89.61 64.02,94.17 64.02,99.79 C64.02,104.44 65.53,113.79 66.45,113.27 C66.43974,113.173606 66.43974,113.076394 66.45,112.98 C66.45,110.64 70.84,108.49 78.11,106.85 C98.9,102.14 130.17,102.14 150.96,106.85 L150.92,106.85 Z M86.37,174.4 L80.85,175.88 C79.97,171.69 79.11,167.58 78.29,163.64 C76.87,156.78 75.45,149.8 74.04,142.59 C72.5466667,134.97 71.1,127.336667 69.7,119.69 C68.98,115.78 68.39,114.69 72.45,112.95 C74.5540912,112.044159 76.7409661,111.344226 78.98,110.86 C89.04,108.58 101.73,107.44 114.5,107.44 C127.27,107.44 139.96,108.58 150.02,110.86 C152.687755,111.439668 155.278651,112.32903 157.74,113.51 C160.34,114.77 160.05,115.51 159.59,118.05 C158.11,126.243333 156.563333,134.423333 154.95,142.59 C153.58,149.59 152.2,156.42 150.81,163.11 C130.23,162.61 108.16,168.54 86.37,174.4 Z M110.01,41.18 L110.01,8.98 C108.587024,8.20870192 107.749233,6.67405595 107.87,5.06 C107.87,2.49739876 109.947399,0.42 112.51,0.42 C115.072601,0.42 117.15,2.49739876 117.15,5.06 C117.265607,6.67293823 116.429245,8.20496554 115.01,8.98 L115.01,41.18 L110.01,41.18 Z M106.79,71.55 C106.702187,69.4512017 107.771847,67.4731366 109.576234,66.3975654 C111.380621,65.3219943 113.629379,65.3219943 115.433766,66.3975654 C117.238153,67.4731366 118.307813,69.4512017 118.22,71.55 L118.22,83.55 C116.31,83.66 114.39,83.7 112.51,83.7 C110.63,83.7 108.7,83.7 106.79,83.55 L106.79,71.55 Z M134.56,86.31 L134.56,67.46 C137.554625,67.1734686 140.516888,66.614488 143.41,65.79 L143.41,42.7 L129.05,42.7 L129.05,50.98 L120.78,50.98 L120.78,42.67 L104.24,42.67 L104.24,50.98 L95.97,50.98 L95.97,42.67 L81.6,42.67 L81.6,65.76 C84.4933543,66.5834639 87.4555229,67.1424268 90.45,67.43 L90.45,86.66 C98.4233098,85.8369089 106.434337,85.4330197 114.45,85.45 C121.55,85.45 128.34,85.75 134.54,86.28 L134.56,86.31 Z M162.12,4.8 C154.57,3.11 147.02,3.28 139.48,7.16 C131.94,11.04 124.4,11.16 116.86,9.5 L116.86,33.76 C125.662953,31.2625087 133.53655,26.2302231 139.5,19.29 C146.43,11.24 153.98,6.66 162.14,4.8 L162.12,4.8 Z M0.27,182.57 C57.97,212.57 153.07,124.77 205.27,195.79 C142.12,144.71 51.36,223.42 0.27,182.57 Z" id="Shape"></path>
        </g>
    </g>
</svg>